<svg xmlns="http://www.w3.org/2000/svg" xmlns:xlink="http://www.w3.org/1999/xlink" width="500" zoomAndPan="magnify" viewBox="0 0 375 374.999991" height="500" preserveAspectRatio="xMidYMid meet" version="1.0"><defs><clipPath id="6663c710d0"><path d="M 143 91 L 233 91 L 233 299.265625 L 143 299.265625 Z M 143 91 " clip-rule="nonzero"/></clipPath></defs><path fill="#000000" d="M 113.554688 269.691406 C 109.121094 269.691406 106.160156 268.210938 103.203125 265.253906 L 44.050781 206.097656 C 38.132812 200.183594 38.132812 191.308594 44.050781 185.394531 L 103.203125 126.238281 C 109.121094 120.324219 117.992188 120.324219 123.910156 126.238281 C 129.824219 132.15625 129.824219 141.027344 123.910156 146.941406 L 75.105469 195.746094 L 123.910156 244.550781 C 129.824219 250.464844 129.824219 259.335938 123.910156 265.253906 C 120.949219 268.210938 117.992188 269.691406 113.554688 269.691406 Z M 113.554688 269.691406 " fill-opacity="1" fill-rule="nonzero"/><path fill="#000000" d="M 261.445312 269.691406 C 257.007812 269.691406 254.050781 268.210938 251.089844 265.253906 C 245.175781 259.335938 245.175781 250.464844 251.089844 244.550781 L 299.894531 195.746094 L 251.089844 146.941406 C 245.175781 141.027344 245.175781 132.15625 251.089844 126.238281 C 257.007812 120.324219 265.878906 120.324219 271.796875 126.238281 L 330.949219 185.394531 C 336.867188 191.308594 336.867188 200.183594 330.949219 206.097656 L 271.796875 265.253906 C 268.839844 268.210938 265.878906 269.691406 261.445312 269.691406 Z M 261.445312 269.691406 " fill-opacity="1" fill-rule="nonzero"/><g clip-path="url(#6663c710d0)"><path fill="#000000" d="M 157.921875 299.265625 C 156.445312 299.265625 154.964844 299.265625 153.484375 297.789062 C 146.089844 294.832031 141.65625 287.4375 144.613281 278.5625 L 203.765625 101.097656 C 206.726562 93.703125 214.121094 89.265625 222.992188 92.226562 C 230.386719 95.183594 234.824219 102.578125 231.867188 111.449219 L 172.710938 288.914062 C 169.753906 294.832031 163.839844 299.265625 157.921875 299.265625 Z M 157.921875 299.265625 " fill-opacity="1" fill-rule="nonzero"/></g></svg>